# Alias OBJ Model File
# Exported from SketchUp, (c) 2000-2012 Trimble Navigation Limited
# File units = centimeters

mtllib Restliche_Verkleidung.mtl

g Mesh1 Component_751 G_17_restliche_Verkleidung_dwg1 Model

usemtl Eiche___Natur___quer
v 5178.8 146.117 -799.138
vt -2038.9 57.5264
vn 0 0 -1
v 5305.11 144.117 -799.138
vt -2088.63 56.739
v 5178.8 144.117 -799.138
vt -2038.9 56.739
f 1/1/1 2/2/1 3/3/1

v 5305.11 146.117 -799.138
vt -2088.63 57.5264
f 2/2/1 1/1/1 4/4/1

v 5178.8 146.117 -771.65
vt 2038.9 303.799
vn 0 1 -0
vt 2088.63 314.621
vt 2038.9 314.621
f 5/5/2 4/6/2 1/7/2

v 5305.11 146.117 -771.65
vt 2088.63 303.799
f 4/6/2 5/5/2 6/8/2

vt 2038.9 57.5264
vn 0 0 1
v 5305.11 144.117 -771.65
vt 2088.63 56.739
vt 2088.63 57.5264
f 5/9/3 7/10/3 6/11/3

v 5178.8 144.117 -771.65
vt 2038.9 56.739
f 7/10/3 5/9/3 8/12/3

vt -314.621 57.5264
vn -1 0 2.10104e-14
vt -303.799 56.739
vt -303.799 57.5264
f 1/13/4 8/14/4 5/15/4

vt -314.621 56.739
f 8/14/4 1/13/4 3/16/4

vt -2088.63 314.621
vn 1.4289e-16 -1 4.47332e-30
vt -2038.9 303.799
vt -2038.9 314.621
f 2/17/5 8/18/5 3/19/5

vt -2088.63 303.799
f 8/18/5 2/17/5 7/20/5

vt 314.621 56.739
vn 1 0 8.40416e-14
vt 303.799 57.5264
vt 303.799 56.739
f 2/21/6 6/22/6 7/23/6

vt 314.621 57.5264
f 6/22/6 2/21/6 4/24/6

g Mesh2 Component_751 G_17_restliche_Verkleidung_dwg1 Model

l 1 4

l 3 1

l 2 3

l 4 2

l 6 4

l 5 6

l 1 5

l 5 8

l 7 8

l 7 2

l 6 7

l 8 3

g Mesh3 Component_752 G_17_restliche_Verkleidung_dwg1 Model

usemtl _auto_
v 5305.91 146.117 -799.138
vn 1 0 -0
v 5305.91 259.596 -772.7
vt 304.213 102.203
v 5305.91 146.117 -772.7
vt 304.213 57.5264
f 9/24/7 10/25/7 11/26/7

v 5305.91 259.596 -799.138
vt 314.621 102.203
f 10/25/7 9/24/7 12/27/7

vt -2088.94 57.5264
v 5304.91 259.596 -799.138
vt -2088.55 102.203
vt -2088.94 102.203
f 9/28/1 13/29/1 12/30/1

v 5304.91 146.117 -799.138
vt -2088.55 57.5264
f 13/29/1 9/28/1 14/31/1

vt -2088.94 314.621
vn 0 -1 -1.36531e-15
v 5304.91 146.117 -772.7
vt -2088.55 304.213
vt -2088.55 314.621
f 9/32/8 15/33/8 14/34/8

vt -2088.94 304.213
f 15/33/8 9/32/8 11/35/8

vt 2088.94 102.203
vt 2088.55 57.5264
vt 2088.94 57.5264
f 10/36/3 15/37/3 11/38/3

v 5304.91 259.596 -772.7
vt 2088.55 102.203
f 15/37/3 10/36/3 16/39/3

vt 2088.94 304.213
vt 2088.55 314.621
vt 2088.55 304.213
f 10/40/2 13/41/2 16/42/2

vt 2088.94 314.621
f 13/41/2 10/40/2 12/43/2

vt -314.621 102.203
vn -1 0 -0
vt -304.213 57.5264
vt -304.213 102.203
f 13/44/9 15/45/9 16/46/9

f 15/45/9 13/44/9 14/13/9

g Mesh4 Component_752 G_17_restliche_Verkleidung_dwg1 Model

l 10 11

l 12 10

l 9 12

l 11 9

l 15 11

l 16 15

l 13 16

l 12 13

l 13 14

l 14 15

l 9 14

l 16 10

g Mesh5 Component_753 G_17_restliche_Verkleidung_dwg1 Model

v 5179.89 25.1742 -799.138
vt 314.621 9.91112
v 5179.89 144.096 -772.5
vt 304.134 56.7306
v 5179.89 25.1742 -772.5
vt 304.134 9.91112
f 17/47/7 18/48/7 19/49/7

v 5179.89 144.096 -799.138
vt 314.621 56.7306
f 18/48/7 17/47/7 20/50/7

vt -2039.33 9.91112
v 5179.3 144.096 -799.138
vt -2039.09 56.7306
vt -2039.33 56.7306
f 17/51/1 21/52/1 20/53/1

v 5179.3 25.1742 -799.138
vt -2039.09 9.91112
f 21/52/1 17/51/1 22/54/1

vt -2039.33 314.621
vn 0 -1 -0
v 5179.3 25.1742 -772.5
vt -2039.09 304.134
vt -2039.09 314.621
f 17/55/10 23/56/10 22/57/10

vt -2039.33 304.134
f 23/56/10 17/55/10 19/58/10

vt 2039.33 56.7306
vt 2039.09 9.91112
vt 2039.33 9.91112
f 18/59/3 23/60/3 19/61/3

v 5179.3 144.096 -772.5
vt 2039.09 56.7306
f 23/60/3 18/59/3 24/62/3

vt 2039.33 304.134
vt 2039.09 314.621
vt 2039.09 304.134
f 18/63/2 21/64/2 24/65/2

vt 2039.33 314.621
f 21/64/2 18/63/2 20/66/2

vt -314.621 56.7306
vt -304.134 9.91112
vt -304.134 56.7306
f 21/67/9 23/68/9 24/69/9

vt -314.621 9.91112
f 23/68/9 21/67/9 22/70/9

g Mesh6 Component_753 G_17_restliche_Verkleidung_dwg1 Model

l 18 19

l 20 18

l 17 20

l 19 17

l 23 19

l 24 23

l 18 24

l 24 21

l 21 22

l 21 20

l 22 23

l 17 22

