# Alias OBJ Model File
# Exported from SketchUp, (c) 2000-2012 Trimble Navigation Limited
# File units = centimeters

mtllib restliche Verkleidung_links.mtl

g Mesh1 Component_4 G_17_restliche_Verkleidung_links_dwg1 Model

usemtl _auto_
v 5179.89 144.096 -772.5
vt 304.134 56.7306
vn 1 0 -0
v 5179.89 25.1742 -772.5
vt 304.134 9.91112
v 5179.89 25.1742 -799.138
vt 314.621 9.91112
v 5179.89 144.096 -799.138
vt 314.621 56.7306
f 1/1/1 2/2/1 3/3/1 4/4/1 

v 5179.3 144.096 -772.5
vt 2039.09 56.7306
vn 0 0 1
v 5179.3 25.1742 -772.5
vt 2039.09 9.91112
vt 2039.33 9.91112
vt 2039.33 56.7306
f 5/5/2 6/6/2 2/7/2 1/8/2 

v 5179.3 144.096 -799.138
vt -314.621 56.7306
vn -1 0 -0
v 5179.3 25.1742 -799.138
vt -314.621 9.91112
vt -304.134 9.91112
vt -304.134 56.7306
f 7/9/3 8/10/3 6/11/3 5/12/3 

vt -2039.33 56.7306
vn 0 0 -1
vt -2039.33 9.91112
vt -2039.09 9.91112
vt -2039.09 56.7306
f 4/13/4 3/14/4 8/15/4 7/16/4 

vt -2039.33 314.621
vn 0 -1 -0
vt -2039.33 304.134
vt -2039.09 304.134
vt -2039.09 314.621
f 3/17/5 2/18/5 6/19/5 8/20/5 

vt 2039.33 304.134
vn 0 1 -0
vt 2039.33 314.621
vt 2039.09 314.621
vt 2039.09 304.134
f 1/21/6 4/22/6 7/23/6 5/24/6 

