# Alias OBJ Model File
# Exported from SketchUp, (c) 2000-2012 Trimble Navigation Limited
# File units = centimeters

mtllib restliche Verkleidung_rechts.mtl

g Mesh1 Component_5 G_17_restliche_Verkleidung_rechts_dwg1 Model

usemtl _auto_
v 5305.91 259.596 -772.7
vt 304.213 102.203
vn 1 0 -0
v 5305.91 146.117 -772.7
vt 304.213 57.5264
v 5305.91 146.117 -799.138
vt 314.621 57.5264
v 5305.91 259.596 -799.138
vt 314.621 102.203
f 1/1/1 2/2/1 3/3/1 4/4/1 

v 5304.91 259.596 -772.7
vt 2088.55 102.203
vn 0 0 1
v 5304.91 146.117 -772.7
vt 2088.55 57.5264
vt 2088.94 57.5264
vt 2088.94 102.203
f 5/5/2 6/6/2 2/7/2 1/8/2 

v 5304.91 259.596 -799.138
vt -314.621 102.203
vn -1 0 -0
v 5304.91 146.117 -799.138
vt -314.621 57.5264
vt -304.213 57.5264
vt -304.213 102.203
f 7/9/3 8/10/3 6/11/3 5/12/3 

vt -2088.55 57.5264
vn 0 0 -1
vt -2088.55 102.203
vt -2088.94 102.203
vt -2088.94 57.5264
f 8/13/4 7/14/4 4/15/4 3/16/4 

vt 2088.94 304.213
vn 0 1 -0
vt 2088.94 314.621
vt 2088.55 314.621
vt 2088.55 304.213
f 1/17/5 4/18/5 7/19/5 5/20/5 

vt -2088.55 314.621
vn 0 -1 -1.36531e-15
vt -2088.94 314.621
vt -2088.94 304.213
vt -2088.55 304.213
f 8/21/6 3/22/6 2/23/6 6/24/6 

