# Alias OBJ Model File
# Exported from SketchUp, (c) 2000-2012 Trimble Navigation Limited
# File units = centimeters

mtllib Rueckwand.mtl

g Mesh1 Component_1 G_8_WC_R_ckwand_dwg1 Model

usemtl _auto_
v 5492.33 255.208 -771.416
vt 2162.33 100.476
vn 0 0 1
v 5399.1 25.0083 -771.416
vt 2125.63 9.84579
v 5492.33 25.0083 -771.416
vt 2162.33 9.84579
f 1/1/1 2/2/1 3/3/1

v 5399.1 255.208 -771.416
vt 2125.63 100.476
f 2/2/1 1/1/1 4/4/1

vt 2162.33 303.707
vn 0 1 -0
v 5399.1 255.208 -772.416
vt 2125.63 304.101
vt 2125.63 303.707
f 1/5/2 5/6/2 4/7/2

v 5492.33 255.208 -772.416
vt 2162.33 304.101
f 5/6/2 1/5/2 6/8/2

vt 303.707 100.476
vn 1 0 -0
v 5492.33 25.0083 -772.416
vt 304.101 9.84579
vt 304.101 100.476
f 1/9/3 7/10/3 6/11/3

vt 303.707 9.84579
f 7/10/3 1/9/3 3/12/3

vt -2125.63 303.707
vn 0 -1 -0
vt -2162.33 304.101
vt -2162.33 303.707
f 2/13/4 7/14/4 3/15/4

v 5399.1 25.0083 -772.416
vt -2125.63 304.101
f 7/14/4 2/13/4 8/16/4

vt -303.707 9.84579
vn -1 0 -0
vt -304.101 100.476
vt -304.101 9.84579
f 2/17/5 5/18/5 8/19/5

vt -303.707 100.476
f 5/18/5 2/17/5 4/20/5

vt -2125.63 100.476
vn 0 0 -1
vt -2162.33 9.84579
vt -2125.63 9.84579
f 5/21/6 7/22/6 8/23/6

vt -2162.33 100.476
f 7/22/6 5/21/6 6/24/6

g Mesh2 Component_1 G_8_WC_R_ckwand_dwg1 Model

l 4 2

l 1 4

l 3 1

l 2 3

l 8 2

l 5 8

l 4 5

l 5 6

l 6 7

l 6 1

l 7 8

l 3 7

g Mesh3 Component_2 G_8_WC_R_ckwand_dwg1 Model

usemtl Eisen___Guss
v 5492.43 25.1956 -772.416
vt 304.101 9.91954
v 5492.43 255.196 -771.416
vt 303.707 100.471
v 5492.43 25.1956 -771.416
vt 303.707 9.91954
f 9/25/3 10/26/3 11/27/3

v 5492.43 255.196 -772.416
vt 304.101 100.471
f 10/26/3 9/25/3 12/28/3

vt 2162.37 9.91954
vn 1.44382e-13 -5.68966e-44 1
v 5493.43 255.196 -772.416
vt 2162.77 100.471
vt 2162.37 100.471
f 9/29/7 13/30/7 12/31/7

v 5493.43 25.1956 -772.416
vt 2162.77 9.91954
f 13/30/7 9/29/7 14/32/7

vt -2162.37 304.101
v 5493.53 25.1956 -772.516
vt -2162.81 304.14
vt -2162.77 304.101
f 9/33/4 15/34/4 14/35/4

v 5492.33 25.1956 -772.416
f 16/14/4 15/34/4 9/33/4

v 5491.83 25.1956 -772.416
vt -2162.14 304.101
f 17/36/4 15/34/4 16/14/4

v 5491.83 25.1956 -772.516
vt -2162.14 304.14
f 15/34/4 17/36/4 18/37/4

vt -304.101 9.91954
v 5491.83 255.196 -772.516
vt -304.14 100.471
vt -304.14 9.91954
f 17/38/5 19/39/5 18/40/5

v 5491.83 255.196 -772.416
vt -304.101 100.471
f 19/39/5 17/38/5 20/41/5

vt 2162.14 9.91954
v 5492.33 255.196 -772.416
vt 2162.33 100.471
vt 2162.14 100.471
f 17/42/1 21/43/1 20/44/1

vt 2162.33 9.91954
f 21/43/1 17/42/1 16/45/1

v 5492.33 25.1956 -771.416
vt -303.707 9.91954
f 22/46/5 21/41/5 16/38/5

v 5492.33 255.196 -771.416
vt -303.707 100.471
f 21/41/5 22/46/5 23/47/5

vt -2162.33 9.91954
v 5491.83 255.196 -771.416
vt -2162.14 100.471
vt -2162.33 100.471
f 22/48/6 24/49/6 23/50/6

v 5491.83 25.1956 -771.416
vt -2162.14 9.91954
f 24/49/6 22/48/6 25/51/6

v 5491.83 25.1956 -771.316
vt -2162.14 303.668
vt -2162.14 303.707
f 22/15/4 26/52/4 25/53/4

v 5492.33 25.1956 -771.316
vt -2162.33 303.668
f 26/52/4 22/15/4 27/54/4

f 22/15/4 9/33/4 27/54/4

f 16/14/4 9/33/4 22/15/4

v 5492.33 25.1956 -770.816
vt -2162.33 303.471
f 27/54/4 9/33/4 28/55/4

v 5492.43 25.1956 -770.816
vt -2162.37 303.471
f 9/33/4 29/56/4 28/55/4

vt -2162.37 303.707
f 29/56/4 9/33/4 11/57/4

v 5492.43 25.1956 -771.316
vt -2162.37 303.668
f 29/56/4 11/57/4 30/58/4

v 5493.43 25.1956 -771.416
vt -2162.77 303.707
f 31/59/4 30/58/4 11/57/4

v 5493.43 25.1956 -771.316
vt -2162.77 303.668
f 30/58/4 31/59/4 32/60/4

f 31/59/4 15/34/4 32/60/4

f 14/35/4 15/34/4 31/59/4

f 31/46/5 13/41/5 14/38/5

v 5493.43 255.196 -771.416
f 13/41/5 31/46/5 33/47/5

vt -2162.77 9.91954
vt -2162.37 100.471
vt -2162.77 100.471
f 31/61/6 10/62/6 33/63/6

vt -2162.37 9.91954
f 10/62/6 31/61/6 11/64/6

vt 2162.37 303.707
v 5493.43 255.196 -771.316
vt 2162.77 303.668
vt 2162.77 303.707
f 10/65/2 34/66/2 33/67/2

v 5492.43 255.196 -771.316
vt 2162.37 303.668
f 34/66/2 10/65/2 35/68/2

vt 2162.37 304.101
f 12/69/2 35/68/2 10/65/2

v 5492.43 255.196 -770.816
vt 2162.37 303.471
f 12/69/2 36/70/2 35/68/2

f 12/69/2 21/8/2 36/70/2

v 5493.53 255.196 -772.516
vt 2162.81 304.14
f 37/71/2 21/8/2 12/69/2

vt 2162.14 304.14
f 19/72/2 21/8/2 37/71/2

vt 2162.14 304.101
f 21/8/2 19/72/2 20/73/2

vt -2162.81 9.91954
vt -2162.81 100.471
f 15/74/6 19/49/6 37/75/6

f 19/49/6 15/74/6 18/51/6

v 5493.53 255.196 -770.816
vt 303.471 100.471
vt 304.14 9.91954
vt 304.14 100.471
f 38/76/3 15/77/3 37/78/3

v 5493.53 25.1956 -770.816
vt 303.471 9.91954
f 15/77/3 38/76/3 39/79/3

vt 2162.81 100.471
v 5493.43 25.1956 -770.816
vt 2162.81 9.91954
f 38/80/1 40/32/1 39/81/1

v 5493.43 255.196 -770.816
f 40/32/1 38/80/1 41/30/1

vt 2162.81 303.471
vt 2162.77 303.471
f 38/82/2 34/66/2 41/83/2

f 34/66/2 38/82/2 33/67/2

vt 2162.77 304.101
f 33/67/2 38/82/2 13/84/2

f 37/71/2 13/84/2 38/82/2

f 37/71/2 12/69/2 13/84/2

vt -303.668 100.471
vt -303.471 9.91954
vt -303.471 100.471
f 34/85/5 40/86/5 41/87/5

vt -303.668 9.91954
f 40/86/5 34/85/5 32/88/5

f 34/30/1 30/29/1 32/32/1

f 30/29/1 34/30/1 35/31/1

vt 303.668 9.91954
vt 303.668 100.471
f 36/76/3 30/89/3 35/90/3

f 30/89/3 36/76/3 29/79/3

f 36/31/1 28/45/1 29/29/1

v 5492.33 255.196 -770.816
f 28/45/1 36/31/1 42/43/1

v 5492.33 255.196 -771.316
vt 2162.33 303.668
vt 2162.33 303.471
f 36/70/2 43/91/2 42/92/2

f 43/91/2 36/70/2 23/5/2

f 23/5/2 36/70/2 21/8/2

vt 2162.14 303.707
f 24/93/2 43/91/2 23/5/2

v 5491.83 255.196 -771.316
vt 2162.14 303.668
f 43/91/2 24/93/2 44/94/2

f 24/47/5 26/88/5 44/85/5

f 26/88/5 24/47/5 25/46/5

f 26/42/1 43/43/1 44/44/1

f 43/43/1 26/42/1 27/45/1

f 28/86/5 43/85/5 27/88/5

f 43/85/5 28/86/5 42/87/5

vt -2162.77 303.471
f 32/60/4 15/34/4 40/95/4

vt -2162.81 303.471
f 40/95/4 15/34/4 39/96/4

g Mesh4 Component_2 G_8_WC_R_ckwand_dwg1 Model

l 10 11

l 12 10

l 9 12

l 11 9

l 31 11

l 14 31

l 9 14

l 14 13

l 13 12

l 33 13

l 31 33

l 10 33

g Mesh5 Component_2 G_8_WC_R_ckwand_dwg1 Model

l 44 26

l 43 44

l 27 43

l 26 27

l 25 26

l 24 25

l 44 24

l 24 23

l 23 22

l 23 21

l 21 16

l 21 20

l 20 17

l 20 19

l 19 18

l 19 37

l 37 15

l 37 38

l 38 39

l 38 41

l 41 40

l 41 34

l 34 32

l 34 35

l 35 30

l 35 36

l 36 29

l 36 42

l 42 28

l 42 43

l 28 29

l 27 28

l 29 30

l 30 32

l 32 40

l 40 39

l 39 15

l 15 18

l 18 17

l 17 16

l 16 22

l 22 25

