# Alias OBJ Model File
# Exported from SketchUp, (c) 2000-2012 Trimble Navigation Limited
# File units = centimeters

mtllib WC_Vorderwand.mtl

g Mesh1 Component_653 G_11_WC_Vorderwand_dwg1 Model

usemtl TRANSPARENT
v 5416.84 255.208 -611.016
vt 2132.65 100.476
vn 0.000141669 0 1
v 5306.27 25.0083 -611
vt 2089.12 9.84579
v 5416.84 25.0083 -611.016
vt 2132.65 9.84579
f 1/1/1 2/2/1 3/3/1

v 5306.27 255.208 -611
vt 2089.12 100.476
f 2/2/1 1/1/1 4/4/1

vt 2132.61 240.557
vn 0 1 -0
v 5306.27 255.208 -612
vt 2089.08 240.945
vt 2089.08 240.551
f 1/5/2 5/6/2 4/7/2

v 5416.84 255.208 -612.016
vt 2132.61 240.951
f 5/6/2 1/5/2 6/8/2

vt 240.557 100.476
vn 1 0 -0
v 5416.84 25.0083 -612.016
vt 240.951 9.84579
vt 240.951 100.476
f 1/9/3 7/10/3 6/11/3

vt 240.557 9.84579
f 7/10/3 1/9/3 3/12/3

vt -2089.08 240.551
vn 0 -1 -0
vt -2132.61 240.951
vt -2132.61 240.557
f 2/13/4 7/14/4 3/15/4

v 5306.27 25.0083 -612
vt -2089.08 240.945
f 7/14/4 2/13/4 8/16/4

vt -240.551 9.84579
vn -1 0 -0
vt -240.945 100.476
vt -240.945 9.84579
f 2/17/5 5/18/5 8/19/5

vt -240.551 100.476
f 5/18/5 2/17/5 4/20/5

vt -2089.12 100.476
vn -0.000141669 0 -1
vt -2132.65 9.84579
vt -2089.12 9.84579
f 5/21/6 7/22/6 8/23/6

vt -2132.65 100.476
f 7/22/6 5/21/6 6/24/6

g Mesh2 Component_653 G_11_WC_Vorderwand_dwg1 Model

l 4 2

l 1 4

l 3 1

l 2 3

l 8 2

l 5 8

l 4 5

l 5 6

l 6 7

l 6 1

l 7 8

l 3 7

