# Alias OBJ Model File
# Exported from SketchUp, (c) 2000-2012 Trimble Navigation Limited
# File units = centimeters

mtllib restliche Verkleidung_Abdeckbrett.mtl

g Mesh1 Component_3 G_17_restliche_Verkleidung_Abdeckbrett_dwg1 Model

usemtl Eiche___Natur___quer
v 5178.8 146.117 -799.138
vt -2038.9 57.5264
vn 0 0 -1
v 5305.11 146.117 -799.138
vt -2088.63 57.5264
v 5305.11 144.117 -799.138
vt -2088.63 56.739
v 5178.8 144.117 -799.138
vt -2038.9 56.739
f 1/1/1 2/2/1 3/3/1 4/4/1 

vt 2088.63 314.621
vn 0 1 -0
vt 2038.9 314.621
v 5178.8 146.117 -771.65
vt 2038.9 303.799
v 5305.11 146.117 -771.65
vt 2088.63 303.799
f 2/5/2 1/6/2 5/7/2 6/8/2 

v 5178.8 144.117 -771.65
vt -303.799 56.739
vn -1 0 2.10104e-14
vt -303.799 57.5264
vt -314.621 57.5264
vt -314.621 56.739
f 7/9/3 5/10/3 1/11/3 4/12/3 

vt 2088.63 57.5264
vn 0 0 1
vt 2038.9 57.5264
vt 2038.9 56.739
v 5305.11 144.117 -771.65
vt 2088.63 56.739
f 6/13/4 5/14/4 7/15/4 8/16/4 

vt -2038.9 314.621
vn 1.4289e-16 -1 4.47332e-30
vt -2088.63 314.621
vt -2088.63 303.799
vt -2038.9 303.799
f 4/17/5 3/18/5 8/19/5 7/20/5 

vt 303.799 56.739
vn 1 0 8.40416e-14
vt 314.621 56.739
vt 314.621 57.5264
vt 303.799 57.5264
f 8/21/6 3/22/6 2/23/6 6/24/6 

