# Alias OBJ Model File
# Exported from SketchUp, (c) 2000-2012 Trimble Navigation Limited
# File units = centimeters

mtllib Seitenwand.mtl

g Mesh1 Component_737 G_14_Seitenwand_dwg1 Model

usemtl TRANSPARENT
v 5305.21 255.208 -771.3
vt -2088.67 100.476
vn 0 0 -1
v 5306.21 25.0083 -771.3
vt -2089.06 9.84579
v 5305.21 25.0083 -771.3
vt -2088.67 9.84579
f 1/1/1 2/2/1 3/3/1

v 5306.21 255.208 -771.3
vt -2089.06 100.476
f 2/2/1 1/1/1 4/4/1

vt 2088.67 303.661
vn 0 1 -0
v 5306.21 255.208 -673.1
vt 2089.06 265
vt 2089.06 303.661
f 1/5/2 5/6/2 4/7/2

v 5305.21 255.208 -673.1
vt 2088.67 265
f 5/6/2 1/5/2 6/8/2

vt -303.661 100.476
vn -1 0 -0
v 5305.21 25.0083 -673.1
vt -265 9.84579
vt -265 100.476
f 1/9/3 7/10/3 6/11/3

vt -303.661 9.84579
f 7/10/3 1/9/3 3/12/3

vt -2089.06 303.661
vn 0 -1 -1.3784e-16
vt -2088.67 265
vt -2088.67 303.661
f 2/13/4 7/14/4 3/15/4

v 5306.21 25.0083 -673.1
vt -2089.06 265
f 7/14/4 2/13/4 8/16/4

vt 303.661 9.84579
vn 1 0 -0
vt 265 100.476
vt 265 9.84579
f 2/17/5 5/18/5 8/19/5

vt 303.661 100.476
f 5/18/5 2/17/5 4/20/5

vt 2089.06 100.476
vn 0 0 1
vt 2088.67 9.84579
vt 2089.06 9.84579
f 5/21/6 7/22/6 8/23/6

vt 2088.67 100.476
f 7/22/6 5/21/6 6/24/6

g Mesh2 Component_737 G_14_Seitenwand_dwg1 Model

l 4 2

l 1 4

l 3 1

l 2 3

l 8 2

l 5 8

l 4 5

l 5 6

l 6 7

l 6 1

l 7 8

l 3 7

