# Alias OBJ Model File
# Exported from SketchUp, (c) 2000-2012 Trimble Navigation Limited
# File units = centimeters

mtllib Spiegel.mtl

g Mesh1 Component_759 G_20_Spiegel_dwg1 Model

usemtl Spiegel
v 5287.53 165.045 -794.538
vt 2081.7 312.81
vn 0 1 -0
v 5283.09 165.045 -795.138
vt 2079.96 313.046
v 5283.09 165.045 -794.538
vt 2079.96 312.81
f 1/1/1 2/2/1 3/3/1

v 5287.53 165.045 -795.138
vt 2081.7 313.046
f 2/2/1 1/1/1 4/4/1

vt -312.81 64.9785
vn -1 0 -0
v 5287.53 259.562 -795.138
vt -313.046 102.19
vt -313.046 64.9785
f 1/5/2 5/6/2 4/7/2

v 5287.53 259.562 -794.538
vt -312.81 102.19
f 5/6/2 1/5/2 6/8/2

vt 2081.7 64.9785
vn 0 0 1
v 5304.91 286.096 -794.538
vt 2088.55 112.636
vt 2081.7 102.19
f 1/9/3 7/10/3 6/11/3

v 5304.91 146.117 -794.538
vt 2088.55 57.5264
f 1/9/3 8/12/3 7/10/3

v 5179.3 146.117 -794.538
vt 2039.09 57.5264
f 8/12/3 1/9/3 9/13/3

v 5196.68 165.045 -794.538
vt 2045.94 64.9785
f 10/14/3 9/13/3 1/9/3

v 5179.3 286.096 -794.538
vt 2039.09 112.636
f 9/13/3 10/14/3 11/15/3

v 5196.68 259.562 -794.538
vt 2045.94 102.19
f 11/15/3 10/14/3 12/16/3

v 5196.68 165.045 -795.138
vt 313.046 64.9785
vn 1 0 -0
vt 312.81 102.19
vt 312.81 64.9785
f 13/17/4 12/18/4 10/19/4

v 5196.68 259.562 -795.138
vt 313.046 102.19
f 12/18/4 13/17/4 14/20/4

vt -2045.94 64.9785
vn 0 0 -1
v 5179.3 286.096 -795.138
vt -2039.09 112.636
vt -2045.94 102.19
f 13/21/5 15/22/5 14/23/5

v 5179.3 146.117 -795.138
vt -2039.09 57.5264
f 13/21/5 16/24/5 15/22/5

v 5304.91 146.117 -795.138
vt -2088.55 57.5264
f 16/24/5 13/21/5 17/25/5

vt -2081.7 64.9785
f 4/26/5 17/25/5 13/21/5

v 5304.91 286.096 -795.138
vt -2088.55 112.636
f 17/25/5 4/26/5 18/27/5

vt -2081.7 102.19
f 18/27/5 4/26/5 5/28/5

f 18/27/5 5/28/5 15/22/5

v 5283.09 259.562 -795.138
vt -2079.96 102.19
f 19/29/5 15/22/5 5/28/5

v 5201.11 259.562 -795.138
vt -2047.68 102.19
f 20/30/5 15/22/5 19/29/5

f 14/23/5 15/22/5 20/30/5

vt -2047.68 313.046
vn 0 -1 -0
vt -2045.94 312.81
vt -2045.94 313.046
f 20/31/6 12/32/6 14/33/6

v 5201.11 259.562 -794.538
vt -2047.68 312.81
f 12/32/6 20/31/6 21/34/6

v 5201.11 165.045 -794.538
f 20/6/2 22/5/2 21/8/2

v 5201.11 165.045 -795.138
f 22/5/2 20/6/2 23/7/2

vt -2079.96 64.9785
vt -2047.68 64.9785
f 20/30/5 2/35/5 23/36/5

f 2/35/5 20/30/5 19/29/5

v 5283.09 259.562 -794.538
f 24/18/4 2/17/4 19/20/4

f 2/17/4 24/18/4 3/19/4

vt 2079.96 102.19
vt 2047.68 64.9785
vt 2079.96 64.9785
f 24/37/3 22/38/3 3/39/3

vt 2047.68 102.19
f 22/38/3 24/37/3 21/40/3

f 24/37/3 7/10/3 21/40/3

f 6/11/3 7/10/3 24/37/3

vt -2079.96 312.81
vt -2081.7 313.046
vt -2081.7 312.81
f 24/41/6 5/42/6 6/43/6

vt -2079.96 313.046
f 5/42/6 24/41/6 19/44/6

f 21/40/3 7/10/3 12/16/3

f 11/15/3 12/16/3 7/10/3

vt 2088.55 312.81
vt 2039.09 313.046
vt 2039.09 312.81
f 7/45/1 15/46/1 11/47/1

vt 2088.55 313.046
f 15/46/1 7/45/1 18/48/1

vt 312.81 112.636
vt 313.046 57.5264
vt 313.046 112.636
f 7/49/4 17/50/4 18/51/4

vt 312.81 57.5264
f 17/50/4 7/49/4 8/52/4

vt -2039.09 312.81
vt -2088.55 313.046
vt -2088.55 312.81
f 9/53/6 17/54/6 8/55/6

vt -2039.09 313.046
f 17/54/6 9/53/6 16/56/6

vt -312.81 57.5264
vt -313.046 112.636
vt -313.046 57.5264
f 9/57/2 15/58/2 16/59/2

vt -312.81 112.636
f 15/58/2 9/57/2 11/60/2

f 10/14/3 3/39/3 22/38/3

f 10/14/3 1/9/3 3/39/3

vt 2047.68 312.81
vt 2045.94 313.046
vt 2045.94 312.81
f 22/61/1 13/62/1 10/63/1

vt 2047.68 313.046
f 13/62/1 22/61/1 23/64/1

f 4/26/5 13/21/5 23/36/5

f 4/26/5 23/36/5 2/35/5

g Mesh2 Component_759 G_20_Spiegel_dwg1 Model

l 1 4

l 3 1

l 2 3

l 4 2

l 5 4

l 6 5

l 1 6

l 6 24

l 24 19

l 24 3

l 19 5

l 2 19

g Mesh3 Component_759 G_20_Spiegel_dwg1 Model

l 13 10

l 23 13

l 22 23

l 10 22

l 12 10

l 21 12

l 22 21

l 21 20

l 20 23

l 14 20

l 12 14

l 13 14

g Mesh4 Component_759 G_20_Spiegel_dwg1 Model

l 15 16

l 11 15

l 9 11

l 16 9

l 17 16

l 18 17

l 15 18

l 18 7

l 7 8

l 7 11

l 8 17

l 9 8

g Mesh5 Component_760 G_20_Spiegel_dwg1 Model

usemtl Gl_hbirne___ein
v 5287.53 259.562 -794.548
vt 2081.7 312.814
v 5283.09 259.562 -795.139
vt 2079.96 313.047
v 5283.09 259.562 -794.548
vt 2079.96 312.814
f 25/65/1 26/66/1 27/67/1

v 5287.53 259.562 -795.139
vt 2081.7 313.047
f 26/66/1 25/65/1 28/68/1

vt 312.814 102.19
v 5287.53 165.045 -795.139
vt 313.047 64.9785
vt 313.047 102.19
f 25/69/4 29/70/4 28/71/4

v 5287.53 165.045 -794.548
vt 312.814 64.9785
f 29/70/4 25/69/4 30/72/4

v 5283.09 165.045 -794.548
f 25/11/3 31/39/3 30/9/3

f 31/39/3 25/11/3 27/37/3

vt -313.047 102.19
vt -312.814 64.9785
vt -312.814 102.19
f 26/73/2 31/74/2 27/75/2

v 5283.09 165.045 -795.139
vt -313.047 64.9785
f 31/74/2 26/73/2 32/76/2

f 26/29/5 29/26/5 32/35/5

f 29/26/5 26/29/5 28/28/5

vt -2081.7 313.047
vt -2079.96 312.814
vt -2079.96 313.047
f 29/77/6 31/78/6 32/79/6

vt -2081.7 312.814
f 31/78/6 29/77/6 30/80/6

g Mesh6 Component_760 G_20_Spiegel_dwg1 Model

l 26 27

l 28 26

l 25 28

l 27 25

l 31 27

l 32 31

l 26 32

l 32 29

l 29 30

l 29 28

l 30 31

l 25 30

g Mesh7 Component_761 G_20_Spiegel_dwg1 Model

v 5201.11 259.562 -794.548
vt 2047.68 312.814
v 5196.68 259.562 -795.139
vt 2045.94 313.047
v 5196.68 259.562 -794.548
vt 2045.94 312.814
f 33/81/1 34/82/1 35/83/1

v 5201.11 259.562 -795.139
vt 2047.68 313.047
f 34/82/1 33/81/1 36/84/1

v 5201.11 165.045 -795.139
f 33/69/4 37/70/4 36/71/4

v 5201.11 165.045 -794.548
f 37/70/4 33/69/4 38/72/4

v 5196.68 165.045 -794.548
f 33/40/3 39/14/3 38/38/3

f 39/14/3 33/40/3 35/16/3

f 34/73/2 39/74/2 35/75/2

v 5196.68 165.045 -795.139
f 39/74/2 34/73/2 40/76/2

f 34/23/5 37/36/5 40/21/5

f 37/36/5 34/23/5 36/30/5

vt -2047.68 313.047
vt -2045.94 312.814
vt -2045.94 313.047
f 37/85/6 39/86/6 40/87/6

vt -2047.68 312.814
f 39/86/6 37/85/6 38/88/6

g Mesh8 Component_761 G_20_Spiegel_dwg1 Model

l 33 36

l 35 33

l 34 35

l 36 34

l 37 36

l 38 37

l 33 38

l 38 39

l 39 40

l 39 35

l 40 37

l 34 40

g Mesh9 Component_762 G_20_Spiegel_dwg1 Model

usemtl _auto_
v 5179.3 286.096 -799.138
v 5179.89 146.117 -799.138
vt -2039.33 57.5264
v 5179.3 146.117 -799.138
f 41/22/5 42/89/5 43/24/5

v 5179.89 286.096 -799.138
vt -2039.33 112.636
f 42/89/5 41/22/5 44/90/5

vt 2039.09 314.621
v 5179.89 286.096 -795.138
vt 2039.33 313.046
vt 2039.33 314.621
f 41/91/1 45/92/1 44/93/1

f 45/92/1 41/91/1 15/46/1

vt -314.621 112.636
f 41/94/2 16/59/2 15/58/2

vt -314.621 57.5264
f 16/59/2 41/94/2 43/95/2

vt -2039.33 314.621
vt -2039.09 314.621
f 42/96/6 16/56/6 43/97/6

v 5179.89 146.117 -795.138
vt -2039.33 313.046
f 16/56/6 42/96/6 46/98/6

vt 314.621 57.5264
f 42/99/4 45/51/4 46/50/4

vt 314.621 112.636
f 45/51/4 42/99/4 44/100/4

vt 2039.33 112.636
vt 2039.33 57.5264
f 45/101/3 16/13/3 46/102/3

f 16/13/3 45/101/3 15/15/3

g Mesh10 Component_762 G_20_Spiegel_dwg1 Model

l 44 42

l 41 44

l 43 41

l 42 43

l 46 42

l 45 46

l 44 45

l 45 15

l 15 16

l 15 41

l 16 46

l 43 16

