# Blender v2.79 (sub 0) OBJ File: ''
# www.blender.org
mtllib Duschwand_glasklar_scale.mtl
o Mesh1_Component_90_Duschwand_glasklar_dwg1_Model
v 0.000000 575.500000 -2.499906
v 0.000000 0.000000 -2.500000
v 0.000000 0.000000 0.000000
v 0.000000 575.500000 0.000094
v 245.500000 575.500000 -2.499906
v 245.500000 0.000000 -2.500000
v 245.500000 575.500000 0.000094
v 245.500000 0.000000 0.000000
vt 7883.359863 100476.000000
vt 7883.359863 9845.790039
vt 8277.059570 9845.790039
vt 8277.059570 100476.000000
vt -11073.400391 100476.000000
vt -11073.400391 9845.790039
vt 27588.099609 9845.790039
vt 27588.099609 100476.000000
vt -8277.059570 100476.000000
vt -8277.059570 9845.790039
vt -7883.359863 9845.790039
vt -7883.359863 100476.000000
vt -27588.099609 100476.000000
vt -27588.099609 9845.790039
vt 11073.400391 9845.790039
vt 11073.400391 100476.000000
vt 27588.099609 -8277.059570
vt 27588.099609 -7883.359863
vt -11073.400391 -7883.359863
vt -11073.400391 -8277.059570
vt -27588.099609 -7883.359863
vt -27588.099609 -8277.059570
vt 11073.400391 -8277.059570
vt 11073.400391 -7883.359863
vn -1.0000 0.0000 0.0000
vn 0.0000 0.0000 -1.0000
vn 1.0000 0.0000 0.0000
vn 0.0000 -0.0000 1.0000
vn 0.0000 -1.0000 -0.0000
vn 0.0000 1.0000 0.0000
usemtl Glas_Klarglas
s 1
f 1/1/1 2/2/1 3/3/1 4/4/1
f 5/5/2 6/6/2 2/7/2 1/8/2
f 7/9/3 8/10/3 6/11/3 5/12/3
f 4/13/4 3/14/4 8/15/4 7/16/4
f 3/17/5 2/18/5 6/19/5 8/20/5
f 1/21/6 4/22/6 7/23/6 5/24/6
