# Alias OBJ Model File
# Exported from SketchUp, (c) 2000-2012 Trimble Navigation Limited
# File units = centimeters

mtllib Betonboden.mtl

g Mesh1 Component_837 G_1_Betonboden_dwg1 Model

usemtl Betonboden
v 5493.73 17.1956 -610.348
vt 0.0469016 5.49623
vn 0 1 -0
v 5305.29 17.1956 -704.743
vt 0.143808 5.69171
v 5305.29 17.1956 -610.348
vt 0.0441364 5.69036
f 1/1/1 2/2/1 3/3/1

v 5493.73 17.1956 -704.743
vt 0.146573 5.49758
f 2/2/1 1/1/1 4/4/1

vt 0.0546462 4.95771
vn 1 0 -0
v 5493.73 17.0956 -799.138
vt 0.0573109 4.76322
vt 0.0560314 4.86046
f 1/5/2 5/6/2 4/7/2

v 5493.73 17.0956 100.862
vt 0.0441044 5.6904
f 1/5/2 6/8/2 5/6/2

v 5493.73 24.1956 100.862
vt 0.0516013 5.6905
f 6/8/2 1/5/2 7/9/2

v 5493.73 24.1956 -610.348
vt 0.0620375 4.95781
f 8/10/2 7/9/2 1/5/2

v 5305.29 24.1956 -610.348
vt 0.805543 4.96749
vn 1.23951e-17 1 -1.10937e-17
vt 0.0573429 4.76318
vt 0.808308 4.77336
f 9/11/3 7/12/3 8/13/3

v 4593.73 24.1956 -799.138
vt 0.994444 5.70325
f 10/14/3 7/12/3 9/11/3

v 4593.73 24.1956 100.862
f 7/12/3 10/14/3 11/3/3

vt -0.0648131 4.76331
vn -1 0 -0
v 4593.73 17.0956 100.862
vt -0.0441097 5.69039
vt -0.0516065 5.69049
f 10/15/4 12/16/4 11/17/4

v 4593.73 17.0956 -799.138
vt -0.0573162 4.76321
f 12/16/4 10/15/4 13/18/4

vt -0.0516287 5.69047
vn 0 0 -1
vt -0.0573384 4.76319
vt -0.0441319 5.69037
f 10/19/5 5/20/5 13/21/5

v 5493.73 24.1956 -799.138
vt -0.0648353 4.76329
f 5/20/5 10/19/5 14/22/5

v 5305.29 24.1956 -704.743
vt 0.905214 4.96884
vt 1.00765 4.77607
f 10/14/3 15/23/3 14/24/3

f 15/23/3 10/14/3 9/11/3

vt 0.0514968 5.69049
vt 0.0454906 5.59315
vt 0.0528819 5.59325
f 9/25/2 2/26/2 15/27/2

vt 0.0441055 5.69039
f 2/26/2 9/25/2 3/28/2

vt -0.0515243 5.69046
vt -0.0468981 5.49624
vt -0.044133 5.69036
f 9/29/5 1/30/5 3/31/5

vt -0.0542894 5.49634
f 1/30/5 9/29/5 8/32/5

vt 0.0441324 5.69036
vn 0 0 1
v 5493.73 24.1956 -704.743
vt 0.0542888 5.49634
vt 0.0515237 5.69047
f 2/33/6 16/34/6 15/35/6

vt 0.0468975 5.49624
f 16/34/6 2/33/6 4/36/6

vt 0.0634227 4.86056
f 4/7/2 5/6/2 16/37/2

vt 0.0648078 4.76332
f 16/37/2 5/6/2 14/38/2

vt 0.90798 4.77471
f 14/24/3 15/23/3 16/39/3

vt -1.00765 4.77607
vn 0 -1 -0
vt -0.0441364 5.69036
vt -0.994444 5.70325
f 5/40/7 12/41/7 13/42/7

vt -0.057343 4.76318
f 12/41/7 5/40/7 6/43/7

vt 0.0648405 4.76328
vt 0.0441371 5.69036
vt 0.0573437 4.76318
f 7/44/6 12/45/6 6/46/6

vt 0.051634 5.69046
f 12/45/6 7/44/6 11/47/6

