# Alias OBJ Model File
# Exported from SketchUp, (c) 2000-2012 Trimble Navigation Limited
# File units = centimeters

mtllib Fliesenboden.mtl

g Mesh1 Component_2737 G_19_V3_Fliesenboden_dwg1 Model

usemtl Fliesen_Sanmod
v 5304.91 25.1956 -610.7
vt 2088.55 240.433
vn 0 1 -0
v 5179.3 25.1956 -773.615
vt 2039.09 304.573
v 5179.3 25.1956 -610.7
vt 2039.09 240.433
f 1/1/1 2/2/1 3/3/1

v 5304.91 25.1956 -773.615
vt 2088.55 304.573
f 2/2/1 1/1/1 4/4/1

vt 240.433 9.91954
vn 1 0 -0
v 5304.91 24.1956 -773.615
vt 304.573 9.52584
vt 304.573 9.91954
f 1/5/2 5/6/2 4/7/2

v 5304.91 24.1956 -610.7
vt 240.433 9.52584
f 5/6/2 1/5/2 6/8/2

vt 2088.55 9.91954
vn 0 0 1
v 5179.3 24.1956 -610.7
vt 2039.09 9.52584
vt 2088.55 9.52584
f 1/9/3 7/10/3 6/11/3

vt 2039.09 9.91954
f 7/10/3 1/9/3 3/12/3

vt -304.573 9.91954
vn -1 8.66294e-13 1.77249e-15
vt -240.433 9.52584
vt -240.433 9.91954
f 2/13/4 7/14/4 3/15/4

v 5179.3 24.1956 -773.615
vt -304.573 9.52584
f 7/14/4 2/13/4 8/16/4

vt -2039.09 9.91954
vn 0 0 -1
vt -2088.55 9.52584
vt -2039.09 9.52584
f 2/17/5 5/18/5 8/19/5

vt -2088.55 9.91954
f 5/18/5 2/17/5 4/20/5

vt -2088.55 304.573
vn 0 -1 -0
vt -2039.09 240.433
vt -2039.09 304.573
f 5/21/6 7/22/6 8/23/6

vt -2088.55 240.433
f 7/22/6 5/21/6 6/24/6

g Mesh2 Component_2737 G_19_V3_Fliesenboden_dwg1 Model

l 4 2

l 1 4

l 3 1

l 2 3

l 8 2

l 5 8

l 6 5

l 7 6

l 3 7

l 7 8

l 6 1

l 5 4

