# Alias OBJ Model File
# Exported from SketchUp, (c) 2000-2012 Trimble Navigation Limited
# File units = centimeters

mtllib Spiegel.mtl

g Mesh1 Component_2918 G_12_V3_Spiegel_dwg1 Model

usemtl Eiche___Natur
v 5208.3 150.614 -789.851
vt 310.965 59.2967
vn 1 0 -0
v 5208.3 250.092 -788.096
vt 310.274 98.4614
v 5208.3 150.614 -788.096
vt 310.274 59.2967
f 1/1/1 2/2/1 3/3/1

v 5208.3 250.092 -789.851
vt 310.965 98.4614
f 2/2/1 1/1/1 4/4/1

vt 2050.51 59.2967
vn 0 0 1
v 5273.73 250.092 -789.851
vt 2076.27 98.4614
vt 2050.51 98.4614
f 1/5/2 5/6/2 4/7/2

v 5273.73 150.614 -789.851
vt 2076.27 59.2967
f 5/6/2 1/5/2 6/8/2

vt 2050.51 310.965
vn 0 1 -0
v 5273.73 150.614 -788.096
vt 2076.27 310.274
vt 2076.27 310.965
f 1/9/3 7/10/3 6/11/3

vt 2050.51 310.274
f 7/10/3 1/9/3 3/12/3

v 5203.46 146.117 -788.096
vt 2048.61 57.5264
f 3/5/2 8/13/2 7/8/2

v 5203.46 254.691 -788.096
vt 2048.61 100.272
f 8/13/2 3/5/2 9/14/2

f 9/14/2 3/5/2 2/7/2

v 5278.46 254.691 -788.096
vt 2078.14 100.272
f 9/14/2 2/7/2 10/15/2

v 5273.73 250.092 -788.096
f 11/6/2 10/15/2 2/7/2

f 7/8/2 10/15/2 11/6/2

v 5278.46 146.117 -788.096
vt 2078.14 57.5264
f 7/8/2 12/16/2 10/15/2

f 12/16/2 7/8/2 8/13/2

vt -2048.61 310.274
vn 0 -1 -0
v 5278.46 146.117 -793.096
vt -2078.14 312.243
vt -2078.14 310.274
f 8/17/4 13/18/4 12/19/4

v 5203.46 146.117 -793.096
vt -2048.61 312.243
f 13/18/4 8/17/4 14/20/4

vt -310.274 57.5264
vn -1 0 -0
v 5203.46 254.691 -793.096
vt -312.243 100.272
vt -312.243 57.5264
f 8/21/5 15/22/5 14/23/5

vt -310.274 100.272
f 15/22/5 8/21/5 9/24/5

vt 2078.14 310.274
vt 2048.61 312.243
vt 2048.61 310.274
f 10/25/3 15/26/3 9/27/3

v 5278.46 254.691 -793.096
vt 2078.14 312.243
f 15/26/3 10/25/3 16/28/3

vt 310.274 100.272
vt 312.243 57.5264
vt 312.243 100.272
f 10/29/1 13/30/1 16/31/1

vt 310.274 57.5264
f 13/30/1 10/29/1 12/32/1

vt -2078.14 57.5264
vn 0 0 -1
vt -2048.61 100.272
vt -2078.14 100.272
f 13/33/6 15/34/6 16/35/6

vt -2048.61 57.5264
f 15/34/6 13/33/6 14/36/6

vt -310.965 98.4614
vt -310.274 59.2967
vt -310.274 98.4614
f 5/37/5 7/38/5 11/39/5

vt -310.965 59.2967
f 7/38/5 5/37/5 6/40/5

vt -2050.51 310.274
vt -2076.27 310.965
vt -2076.27 310.274
f 2/41/4 5/42/4 11/43/4

vt -2050.51 310.965
f 5/42/4 2/41/4 4/44/4

g Mesh2 Component_2918 G_12_V3_Spiegel_dwg1 Model

l 4 2

l 1 4

l 3 1

l 2 3

l 11 2

l 7 11

l 3 7

l 7 6

l 6 1

l 5 6

l 11 5

l 4 5

g Mesh3 Component_2918 G_12_V3_Spiegel_dwg1 Model

l 13 16

l 12 13

l 10 12

l 16 10

l 15 16

l 14 15

l 13 14

l 14 8

l 8 9

l 8 12

l 9 15

l 10 9

g Mesh4 Component_2919 G_12_V3_Spiegel_dwg1 Model

usemtl Spiegel
v 5218.31 236.293 -789.595
vt -2054.45 310.864
v 5213.92 236.293 -788.595
vt -2052.73 310.47
v 5213.92 236.293 -789.595
vt -2052.73 310.864
f 17/45/4 18/46/4 19/47/4

v 5218.31 236.293 -788.595
vt -2054.45 310.47
f 18/46/4 17/45/4 20/48/4

vt -310.864 93.0287
v 5218.31 165.04 -788.595
vt -310.47 64.9764
vt -310.47 93.0287
f 17/49/5 21/50/5 20/51/5

v 5218.31 165.04 -789.595
vt -310.864 64.9764
f 21/50/5 17/49/5 22/52/5

vt -2054.45 93.0287
v 5264.51 165.04 -789.595
vt -2072.64 64.9764
vt -2054.45 64.9764
f 17/53/6 23/54/6 22/55/6

v 5264.51 236.293 -789.595
vt -2072.64 93.0287
f 23/54/6 17/53/6 24/56/6

v 5208.6 250.092 -789.595
vt -2050.63 98.4614
f 17/53/6 25/57/6 24/56/6

vt -2052.73 93.0287
f 19/58/6 25/57/6 17/53/6

v 5213.92 165.04 -789.595
vt -2052.73 64.9764
f 26/59/6 25/57/6 19/58/6

v 5208.6 150.614 -789.595
vt -2050.63 59.2967
f 26/59/6 27/60/6 25/57/6

v 5274.03 150.614 -789.595
vt -2076.39 59.2967
f 27/60/6 26/59/6 28/61/6

v 5268.9 165.04 -789.595
vt -2074.37 64.9764
f 29/62/6 28/61/6 26/59/6

v 5274.03 250.092 -789.595
vt -2076.39 98.4614
f 28/61/6 29/62/6 30/63/6

v 5268.9 236.293 -789.595
vt -2074.37 93.0287
f 30/63/6 29/62/6 31/64/6

v 5268.9 165.04 -788.595
f 32/50/5 31/49/5 29/52/5

v 5268.9 236.293 -788.595
f 31/49/5 32/50/5 33/51/5

vt 2074.37 64.9764
v 5274.03 250.092 -788.595
vt 2076.39 98.4614
vt 2074.37 93.0287
f 32/65/2 34/66/2 33/67/2

v 5274.03 150.614 -788.595
vt 2076.39 59.2967
f 32/65/2 35/68/2 34/66/2

v 5208.6 150.614 -788.595
vt 2050.63 59.2967
f 35/68/2 32/65/2 36/69/2

v 5213.92 165.04 -788.595
vt 2052.73 64.9764
f 37/70/2 36/69/2 32/65/2

v 5208.6 250.092 -788.595
vt 2050.63 98.4614
f 36/69/2 37/70/2 38/71/2

vt 2052.73 93.0287
f 38/71/2 37/70/2 18/72/2

vt 310.864 64.9764
vt 310.47 93.0287
vt 310.47 64.9764
f 26/73/1 18/74/1 37/75/1

vt 310.864 93.0287
f 18/74/1 26/73/1 19/76/1

vt 2054.45 310.47
vt 2052.73 310.864
vt 2052.73 310.47
f 21/77/3 26/78/3 37/79/3

vt 2054.45 310.864
f 26/78/3 21/77/3 22/80/3

f 29/62/6 26/59/6 22/55/6

f 29/62/6 22/55/6 23/54/6

vt 2072.64 310.864
vt 2074.37 310.47
vt 2074.37 310.864
f 23/81/3 32/82/3 29/83/3

v 5264.51 165.04 -788.595
vt 2072.64 310.47
f 32/82/3 23/81/3 39/84/3

v 5264.51 236.293 -788.595
f 23/73/1 40/74/1 39/75/1

f 40/74/1 23/73/1 24/76/1

vt -2074.37 310.864
vt -2072.64 310.47
vt -2072.64 310.864
f 31/85/4 40/86/4 24/87/4

vt -2074.37 310.47
f 40/86/4 31/85/4 33/88/4

vt 2072.64 93.0287
f 33/67/2 34/66/2 40/89/2

vt 2054.45 93.0287
f 40/89/2 34/66/2 20/90/2

f 20/90/2 34/66/2 18/72/2

f 38/71/2 18/72/2 34/66/2

vt 2076.39 310.47
vt 2050.63 310.864
vt 2050.63 310.47
f 34/91/3 25/92/3 38/93/3

vt 2076.39 310.864
f 25/92/3 34/91/3 30/94/3

vt 310.47 98.4614
vt 310.864 59.2967
vt 310.864 98.4614
f 34/95/1 28/96/1 30/97/1

vt 310.47 59.2967
f 28/96/1 34/95/1 35/98/1

vt -2050.63 310.47
vt -2076.39 310.864
vt -2076.39 310.47
f 36/99/4 28/100/4 35/101/4

vt -2050.63 310.864
f 28/100/4 36/99/4 27/102/4

vt -310.47 59.2967
vt -310.864 98.4614
vt -310.864 59.2967
f 36/103/5 25/104/5 27/105/5

vt -310.47 98.4614
f 25/104/5 36/103/5 38/106/5

f 30/63/6 31/64/6 25/57/6

f 24/56/6 25/57/6 31/64/6

vt 2054.45 64.9764
f 21/107/2 40/89/2 20/90/2

vt 2072.64 64.9764
f 40/89/2 21/107/2 39/108/2

f 37/70/2 39/108/2 21/107/2

f 37/70/2 32/65/2 39/108/2

g Mesh5 Component_2919 G_12_V3_Spiegel_dwg1 Model

l 18 19

l 20 18

l 17 20

l 19 17

l 26 19

l 22 26

l 17 22

l 22 21

l 21 20

l 37 21

l 26 37

l 18 37

g Mesh6 Component_2919 G_12_V3_Spiegel_dwg1 Model

l 40 24

l 33 40

l 31 33

l 24 31

l 23 24

l 29 23

l 31 29

l 29 32

l 32 33

l 39 32

l 23 39

l 40 39

g Mesh7 Component_2919 G_12_V3_Spiegel_dwg1 Model

l 35 28

l 34 35

l 30 34

l 28 30

l 27 28

l 36 27

l 35 36

l 36 38

l 38 25

l 38 34

l 25 27

l 30 25

g Mesh8 Component_2920 G_12_V3_Spiegel_dwg1 Model

usemtl Gl_hbirne___ein
v 5268.96 236.193 -789.004
vt 2074.39 310.631
v 5264.52 236.193 -789.595
vt 2072.65 310.864
v 5264.52 236.193 -789.004
vt 2072.65 310.631
f 41/109/3 42/110/3 43/111/3

v 5268.96 236.193 -789.595
vt 2074.39 310.864
f 42/110/3 41/109/3 44/112/3

vt 310.631 92.9894
v 5268.96 165.045 -789.595
vt 310.864 64.9785
vt 310.864 92.9894
f 41/113/1 45/114/1 44/115/1

v 5268.96 165.045 -789.004
vt 310.631 64.9785
f 45/114/1 41/113/1 46/116/1

vt 2074.39 92.9894
v 5264.52 165.045 -789.004
vt 2072.65 64.9785
vt 2074.39 64.9785
f 41/117/2 47/118/2 46/119/2

vt 2072.65 92.9894
f 47/118/2 41/117/2 43/120/2

vt -310.864 92.9894
vt -310.631 64.9785
vt -310.631 92.9894
f 42/121/5 47/122/5 43/123/5

v 5264.52 165.045 -789.595
vt -310.864 64.9785
f 47/122/5 42/121/5 48/124/5

vt -2072.65 92.9894
vt -2074.39 64.9785
vt -2072.65 64.9785
f 42/125/6 45/126/6 48/127/6

vt -2074.39 92.9894
f 45/126/6 42/125/6 44/128/6

vt -2074.39 310.864
vt -2072.65 310.631
vt -2072.65 310.864
f 45/129/4 47/130/4 48/131/4

vt -2074.39 310.631
f 47/130/4 45/129/4 46/132/4

g Mesh9 Component_2920 G_12_V3_Spiegel_dwg1 Model

l 42 43

l 44 42

l 41 44

l 43 41

l 47 43

l 48 47

l 42 48

l 48 45

l 45 46

l 45 44

l 46 47

l 41 46

g Mesh10 Component_2921 G_12_V3_Spiegel_dwg1 Model

v 5218.38 236.193 -789.204
vt 2054.48 310.71
v 5213.94 236.193 -789.795
vt 2052.73 310.943
v 5213.94 236.193 -789.204
vt 2052.73 310.71
f 49/133/3 50/134/3 51/135/3

v 5218.38 236.193 -789.795
vt 2054.48 310.943
f 50/134/3 49/133/3 52/136/3

vt 310.71 92.9894
v 5218.38 165.045 -789.795
vt 310.943 64.9785
vt 310.943 92.9894
f 49/137/1 53/138/1 52/139/1

v 5218.38 165.045 -789.204
vt 310.71 64.9785
f 53/138/1 49/137/1 54/140/1

vt 2054.48 92.9894
v 5213.94 165.045 -789.204
vt 2052.73 64.9785
vt 2054.48 64.9785
f 49/141/2 55/142/2 54/143/2

vt 2052.73 92.9894
f 55/142/2 49/141/2 51/144/2

vt -310.943 92.9894
vt -310.71 64.9785
vt -310.71 92.9894
f 50/145/5 55/146/5 51/147/5

v 5213.94 165.045 -789.795
vt -310.943 64.9785
f 55/146/5 50/145/5 56/148/5

vt -2052.73 92.9894
vt -2054.48 64.9785
vt -2052.73 64.9785
f 50/149/6 53/150/6 56/151/6

vt -2054.48 92.9894
f 53/150/6 50/149/6 52/152/6

vt -2054.48 310.943
vt -2052.73 310.71
vt -2052.73 310.943
f 53/153/4 55/154/4 56/155/4

vt -2054.48 310.71
f 55/154/4 53/153/4 54/156/4

g Mesh11 Component_2921 G_12_V3_Spiegel_dwg1 Model

l 50 51

l 52 50

l 49 52

l 51 49

l 55 51

l 56 55

l 50 56

l 56 53

l 53 54

l 53 52

l 54 55

l 49 54

g Mesh12 Component_2926 G_12_V3_Spiegel_dwg1 Model

usemtl Eiche___Natur___quer
v 5178.8 146.117 -799.138
vt -2038.9 57.5264
v 5305.11 144.117 -799.138
vt -2088.63 56.739
v 5178.8 144.117 -799.138
vt -2038.9 56.739
f 57/157/6 58/158/6 59/159/6

v 5305.11 146.117 -799.138
vt -2088.63 57.5264
f 58/158/6 57/157/6 60/160/6

v 5178.8 146.117 -771.65
vt 2038.9 303.799
vt 2088.63 314.621
vt 2038.9 314.621
f 61/161/3 60/162/3 57/163/3

v 5305.11 146.117 -771.65
vt 2088.63 303.799
f 60/162/3 61/161/3 62/164/3

vt 2038.9 57.5264
v 5305.11 144.117 -771.65
vt 2088.63 56.739
vt 2088.63 57.5264
f 61/165/2 63/166/2 62/167/2

v 5178.8 144.117 -771.65
vt 2038.9 56.739
f 63/166/2 61/165/2 64/168/2

vt -314.621 57.5264
vn -1 0 2.10104e-14
vt -303.799 56.739
vt -303.799 57.5264
f 57/169/7 64/170/7 61/171/7

vt -314.621 56.739
f 64/170/7 57/169/7 59/172/7

vt -2088.63 314.621
vn 1.4289e-16 -1 4.47332e-30
vt -2038.9 303.799
vt -2038.9 314.621
f 58/173/8 64/174/8 59/175/8

vt -2088.63 303.799
f 64/174/8 58/173/8 63/176/8

vt 314.621 56.739
vn 1 0 8.40416e-14
vt 303.799 57.5264
vt 303.799 56.739
f 58/177/9 62/178/9 63/179/9

vt 314.621 57.5264
f 62/178/9 58/177/9 60/180/9

g Mesh13 Component_2926 G_12_V3_Spiegel_dwg1 Model

l 57 60

l 59 57

l 58 59

l 60 58

l 62 60

l 61 62

l 57 61

l 61 64

l 63 64

l 63 58

l 62 63

l 64 59

